# xmcd
#
# Track frame offsets: 
#        150
#        20537
#        38988
#        57440
#        75739
#        93288
#        107314
#        126589
#        152312
#        166787
#        181375
#        202134
#        225588
#        247094
#        266163
#        286112
#        306963
#
# Disc length: 4422 seconds
#
# Revision: 2
# Processed by: cddbd v1.5.2PL0 Copyright (c) Steve Scherf et al.
# Submitted via: ExactAudioCopy v1.0b3
#
DISCID=e3114411
DTITLE=Gashouse Dave and The Hardtails - Hollywood After Dark
DYEAR=1999
DGENRE=Blues
TTITLE0=Bullet Proof
TTITLE1=House Of Correction
TTITLE2=Airplane Road
TTITLE3=Rent-A-Car Queen
TTITLE4=My Turn
TTITLE5=Watered Down
TTITLE6=Fell Out Of Love
TTITLE7=Playing With A Broken Heart
TTITLE8=Down On The Farm
TTITLE9=Can't GetThere From Here
TTITLE10=Star Chief
TTITLE11=Mail Order Gun
TTITLE12=Hollywood After Dark
TTITLE13=Silver Continental
TTITLE14=Astroplane
TTITLE15=L.A. Times
TTITLE16=Devil Girl
EXTD=
EXTT0=
EXTT1=
EXTT2=
EXTT3=
EXTT4=
EXTT5=
EXTT6=
EXTT7=
EXTT8=
EXTT9=
EXTT10=
EXTT11=
EXTT12=
EXTT13=
EXTT14=
EXTT15=
EXTT16=
PLAYORDER=
